 <svg version="1.0" xmlns="http://www.w3.org/2000/svg"  width="900.000000pt" height="681.000000pt" viewBox="0 0 900.000000 681.000000"  preserveAspectRatio="xMidYMid meet">  <g transform="translate(0.000000,681.000000) scale(0.100000,-0.100000)" fill="#000000" stroke="none"> <path d="M3110 6350 c-268 -24 -489 -153 -608 -354 -109 -183 -116 -219 -117 -641 -1 -265 -5 -358 -17 -421 -37 -191 -116 -275 -317 -340 -125 -41 -171 -102 -171 -227 0 -67 3 -78 32 -118 40 -56 41 -56 175 -125 199 -102 246 -163 283 -365 19 -106 19 -127 9 -319 -14 -260 -5 -401 34 -540 57 -203 196 -362 393 -451 36 -16 72 -29 80 -29 8 0 25 -6 37 -14 25 -16 66 -22 219 -36 141 -12 207 3 259 60 41 45 65 114 55 162 -22 113 -79 158 -197 158 -106 0 -245 42 -316 95 -66 50 -107 107 -135 190 -6 17 -14 199 -18 425 -8 404 -14 460 -54 545 -8 17 -24 53 -37 80 -26 59 -153 189 -228 236 -28 17 -51 35 -51 39 0 5 12 18 28 30 151 119 204 177 254 278 22 46 44 98 49 115 4 18 13 50 19 72 6 23 15 203 20 415 4 206 13 393 18 414 32 122 124 222 234 252 29 9 103 19 163 23 119 9 152 20 203 72 35 36 49 105 37 181 -20 121 -112 159 -335 138z"/> <path d="M5869 6330 c-61 -32 -109 -113 -109 -185 0 -17 12 -55 26 -83 36 -73 93 -102 200 -102 82 0 177 -20 233 -50 44 -23 120 -96 142 -136 51 -90 53 -109 60 -494 6 -353 11 -407 42 -515 32 -110 122 -232 238 -325 38 -30 69 -62 69 -71 0 -8 -29 -36 -64 -62 -67 -49 -156 -140 -178 -182 -48 -90 -69 -148 -97 -268 -7 -30 -11 -178 -11 -400 0 -330 -1 -356 -21 -424 -17 -56 -33 -84 -71 -127 -73 -83 -172 -122 -333 -133 -133 -8 -184 -38 -223 -126 -16 -38 -15 -117 3 -160 18 -43 64 -88 107 -104 89 -32 364 -4 469 48 9 4 34 12 55 18 60 16 184 102 244 169 30 33 70 91 89 128 19 38 38 76 43 84 11 20 13 26 29 85 10 37 15 165 19 485 7 473 7 473 66 565 42 64 106 117 175 145 142 57 163 68 198 104 59 61 64 208 9 290 -21 32 -42 50 -81 66 -173 73 -254 130 -300 208 -64 110 -67 139 -67 564 0 432 -1 438 -79 599 -92 190 -281 336 -504 388 -121 29 -325 29 -378 1z"/> <path d="M3845 5008 c-41 -22 -88 -75 -111 -123 -30 -64 -34 -194 -7 -269 39 -107 142 -164 250 -137 75 19 136 88 162 183 34 123 -32 289 -136 342 -36 18 -128 21 -158 4z"/> <path d="M5188 5004 c-40 -22 -95 -90 -112 -142 -23 -66 -21 -186 5 -242 53 -119 179 -178 287 -135 40 16 65 44 97 105 28 54 26 228 -4 295 -25 56 -62 100 -103 121 -34 18 -134 16 -170 -2z"/> <path d="M3842 4084 c-32 -22 -62 -87 -62 -131 1 -54 31 -115 91 -178 84 -89 269 -197 394 -230 33 -8 74 -21 90 -27 87 -32 399 -33 490 0 17 5 57 18 90 28 79 23 233 103 317 166 172 127 225 263 137 354 -31 32 -37 34 -98 34 l-65 0 -75 -78 c-125 -130 -208 -179 -381 -229 -77 -22 -267 -22 -340 0 -169 50 -265 108 -381 228 l-75 79 -55 0 c-33 0 -63 -6 -77 -16z"/> <path d="M668 1800 c-17 -10 -18 -49 -18 -580 0 -553 1 -570 19 -580 30 -15 104 -12 129 6 l23 16 -2 541 c-1 298 1 549 5 557 3 8 2 21 -3 29 -11 17 -130 26 -153 11z"/> <path d="M1045 1798 c-78 -43 -96 -153 -35 -218 24 -26 35 -30 80 -30 62 0 82 10 109 54 26 41 27 107 4 148 -29 49 -111 73 -158 46z"/> <path d="M2515 1788 c-3 -7 -4 -267 -3 -578 l3 -565 67 -3 c120 -5 109 -66 106 579 -3 485 -5 561 -18 569 -23 15 -150 13 -155 -2z"/> <path d="M6302 1767 c-23 -11 -72 -93 -72 -121 0 -8 9 -30 20 -49 48 -82 164 -76 205 9 45 94 -61 206 -153 161z"/> <path d="M1458 1664 c-23 -7 -26 -23 -29 -124 -2 -47 -5 -91 -7 -97 -2 -8 -23 -13 -52 -13 -60 0 -82 -21 -82 -84 -1 -26 2 -49 6 -54 4 -4 33 -9 64 -12 l57 -5 5 -245 c5 -234 6 -247 28 -282 33 -54 89 -93 153 -108 61 -14 157 -10 202 8 25 11 27 16 27 70 0 32 -5 63 -11 69 -7 7 -33 9 -69 6 -74 -7 -124 9 -139 45 -13 31 -19 411 -7 431 5 7 40 11 97 11 88 0 90 0 100 28 13 33 5 102 -13 113 -7 5 -52 9 -100 9 -63 0 -88 4 -89 13 0 6 -1 51 -1 99 0 53 -5 94 -12 104 -13 17 -93 28 -128 18z"/> <path d="M2031 1661 c-10 -6 -18 -44 -24 -120 l-10 -111 -49 0 c-76 0 -107 -49 -78 -124 8 -22 16 -25 67 -28 l58 -3 5 -240 c4 -202 8 -245 22 -270 37 -63 78 -98 148 -122 45 -16 155 -15 200 1 l35 13 0 69 0 69 -87 0 c-80 0 -90 2 -112 25 -24 25 -24 27 -27 230 -1 113 -1 211 0 218 1 9 27 12 94 12 59 0 97 4 105 12 7 7 12 33 12 60 0 64 -23 80 -117 78 -37 -1 -74 -1 -80 -1 -10 1 -13 30 -13 109 0 71 -4 112 -12 120 -14 14 -116 16 -137 3z"/> <path d="M7563 1646 c-23 -6 -44 -13 -46 -16 -3 -3 -7 -47 -10 -98 -2 -51 -10 -99 -17 -107 -8 -10 -30 -15 -61 -15 -54 0 -69 -15 -69 -70 0 -53 15 -70 64 -70 24 0 48 -6 54 -13 7 -7 12 -99 14 -237 l3 -225 27 -42 c54 -82 136 -123 251 -123 37 0 83 7 102 14 34 15 35 16 35 73 0 32 -4 64 -8 71 -6 8 -34 12 -91 11 -77 -2 -84 0 -109 25 l-27 26 -3 201 c-2 144 0 205 9 215 8 10 35 14 93 14 50 0 87 5 94 12 16 16 15 113 -1 126 -7 6 -53 12 -103 14 l-89 3 -5 110 -5 110 -30 1 c-16 1 -49 -3 -72 -10z"/> <path d="M5115 1441 c-119 -33 -211 -119 -259 -242 -37 -97 -43 -169 -22 -256 38 -152 132 -260 263 -304 93 -30 206 -24 286 16 62 30 147 114 147 144 0 15 -79 91 -95 91 -4 0 -27 -18 -52 -40 -54 -47 -106 -64 -185 -58 -74 5 -132 44 -170 113 -24 43 -28 62 -28 133 0 58 5 93 17 115 50 97 102 130 205 129 74 0 113 -17 161 -72 33 -37 46 -37 103 -4 55 32 56 51 7 110 -52 62 -126 108 -205 127 -80 20 -95 20 -173 -2z"/> <path d="M3090 1431 c-54 -16 -99 -42 -149 -87 -85 -76 -131 -183 -131 -304 0 -155 84 -301 209 -362 142 -69 280 -64 404 15 68 44 102 87 84 109 -17 21 -89 68 -104 68 -8 0 -38 -16 -67 -36 -49 -32 -60 -35 -128 -36 -52 -1 -84 4 -108 17 -60 30 -110 92 -110 138 l0 27 258 0 c145 0 264 4 272 10 12 7 14 29 13 104 -2 79 -7 105 -29 151 -31 64 -107 138 -174 168 -47 21 -193 32 -240 18z m189 -170 c24 -13 46 -35 61 -64 38 -72 29 -77 -157 -77 -171 0 -200 7 -182 43 21 39 60 82 92 100 44 24 137 23 186 -2z"/> <path d="M4330 1433 c-43 -8 -123 -77 -147 -125 -31 -61 -32 -166 -3 -213 39 -64 81 -86 257 -136 96 -28 137 -55 141 -96 4 -40 -32 -69 -95 -79 -61 -9 -118 9 -175 57 -46 38 -46 39 -80 23 -63 -30 -89 -46 -95 -59 -14 -38 107 -137 197 -162 91 -25 248 -12 291 24 8 7 20 13 27 13 20 0 77 79 90 124 16 62 15 109 -4 154 -36 87 -106 127 -306 173 -52 12 -108 56 -108 86 2 83 173 101 252 26 l28 -27 48 23 c27 12 54 31 60 42 11 17 7 25 -29 63 -65 71 -107 89 -224 92 -55 1 -111 0 -125 -3z"/> <path d="M5671 1429 l-23 -9 3 -379 c3 -302 7 -381 18 -394 16 -21 140 -24 159 -5 9 9 12 73 12 225 0 184 2 218 18 246 53 98 106 137 190 137 26 0 53 5 60 12 16 16 16 150 0 166 -13 13 -62 15 -120 6 -26 -5 -54 -22 -90 -55 -29 -27 -58 -49 -65 -49 -8 0 -13 14 -13 38 0 20 -4 43 -9 50 -10 16 -108 24 -140 11z"/> <path d="M6603 1433 c-10 -4 -13 -124 -13 -553 0 -628 -10 -570 98 -570 40 0 64 5 72 15 9 11 11 57 7 180 -5 141 -3 167 9 172 8 3 23 -2 34 -12 49 -45 177 -58 266 -28 95 32 185 122 217 217 12 36 17 84 17 177 0 163 -18 218 -100 300 -74 74 -124 99 -215 106 -90 7 -133 -1 -179 -32 -44 -30 -56 -31 -56 -5 0 10 -9 24 -19 30 -20 10 -115 13 -138 3z m405 -168 c47 -20 79 -50 105 -100 18 -33 21 -57 21 -141 0 -91 -3 -105 -27 -146 -36 -62 -97 -92 -173 -86 -63 5 -95 26 -139 87 -29 41 -30 46 -30 154 0 105 2 115 27 153 56 86 132 114 216 79z"/> <path d="M8205 1431 c-119 -22 -205 -119 -205 -231 0 -127 60 -184 250 -236 126 -35 162 -66 146 -128 -8 -31 -67 -66 -112 -66 -44 0 -108 32 -157 78 l-38 37 -54 -28 c-29 -16 -61 -37 -70 -48 -16 -17 -16 -21 -2 -41 64 -97 173 -148 314 -148 95 0 147 17 210 67 67 54 86 93 86 179 -1 128 -45 172 -239 240 -69 24 -128 44 -130 44 -2 0 -12 10 -24 22 -27 29 -25 59 4 87 22 21 33 23 98 20 62 -4 79 -8 111 -33 31 -24 42 -28 55 -18 10 6 36 21 60 32 23 12 42 28 42 35 0 16 -60 75 -76 75 -7 0 -17 6 -21 13 -24 37 -161 64 -248 48z"/> <path d="M1017 1423 c-4 -3 -7 -178 -7 -389 0 -431 -8 -394 84 -394 90 0 84 -23 92 386 7 361 7 361 -14 382 -18 18 -34 22 -85 22 -35 0 -67 -3 -70 -7z"/> <path d="M6265 1416 c-17 -12 -18 -33 -16 -386 1 -204 5 -378 8 -386 7 -18 133 -20 151 -2 9 9 12 108 12 384 l0 373 -22 15 c-28 20 -108 21 -133 2z"/> <path d="M3661 1126 c-7 -9 -11 -39 -9 -77 3 -58 5 -64 28 -70 32 -9 288 -11 329 -3 l31 7 0 66 c0 39 -5 72 -12 79 -19 19 -352 17 -367 -2z"/> </g> </svg> 